<mxfile host="Electron" agent="Mozilla/5.0 (X11; Linux x86_64) AppleWebKit/537.36 (KHTML, like Gecko) draw.io/27.0.9 Chrome/134.0.6998.205 Electron/35.4.0 Safari/537.36" version="27.0.9">
  <diagram name="Page-1" id="6ollDwkgUfdoXtGQsKPw">
    <mxGraphModel dx="1548" dy="1210" grid="1" gridSize="10" guides="1" tooltips="1" connect="1" arrows="1" fold="1" page="1" pageScale="1" pageWidth="850" pageHeight="1100" math="0" shadow="0">
      <root>
        <mxCell id="0" />
        <mxCell id="1" parent="0" />
        <mxCell id="pzfeihaZ16w2dNfqgW6l-9" style="edgeStyle=orthogonalEdgeStyle;rounded=0;orthogonalLoop=1;jettySize=auto;html=1;entryX=0;entryY=0.75;entryDx=0;entryDy=0;" parent="1" source="pzfeihaZ16w2dNfqgW6l-2" target="pzfeihaZ16w2dNfqgW6l-3" edge="1">
          <mxGeometry relative="1" as="geometry">
            <Array as="points">
              <mxPoint x="190" y="460" />
              <mxPoint x="190" y="270" />
            </Array>
          </mxGeometry>
        </mxCell>
        <mxCell id="pzfeihaZ16w2dNfqgW6l-10" style="edgeStyle=orthogonalEdgeStyle;rounded=0;orthogonalLoop=1;jettySize=auto;html=1;entryX=0;entryY=0.5;entryDx=0;entryDy=0;" parent="1" source="pzfeihaZ16w2dNfqgW6l-2" target="pzfeihaZ16w2dNfqgW6l-5" edge="1">
          <mxGeometry relative="1" as="geometry" />
        </mxCell>
        <mxCell id="pzfeihaZ16w2dNfqgW6l-11" style="edgeStyle=orthogonalEdgeStyle;rounded=0;orthogonalLoop=1;jettySize=auto;html=1;entryX=0;entryY=0.5;entryDx=0;entryDy=0;" parent="1" source="pzfeihaZ16w2dNfqgW6l-2" target="pzfeihaZ16w2dNfqgW6l-4" edge="1">
          <mxGeometry relative="1" as="geometry" />
        </mxCell>
        <mxCell id="pzfeihaZ16w2dNfqgW6l-2" value="AWS" style="rounded=1;whiteSpace=wrap;html=1;" parent="1" vertex="1">
          <mxGeometry x="30" y="440" width="90" height="40" as="geometry" />
        </mxCell>
        <mxCell id="pzfeihaZ16w2dNfqgW6l-20" style="edgeStyle=orthogonalEdgeStyle;rounded=0;orthogonalLoop=1;jettySize=auto;html=1;entryX=0;entryY=0.5;entryDx=0;entryDy=0;" parent="1" source="pzfeihaZ16w2dNfqgW6l-3" target="pzfeihaZ16w2dNfqgW6l-6" edge="1">
          <mxGeometry relative="1" as="geometry" />
        </mxCell>
        <mxCell id="pzfeihaZ16w2dNfqgW6l-21" style="edgeStyle=orthogonalEdgeStyle;rounded=0;orthogonalLoop=1;jettySize=auto;html=1;entryX=0;entryY=0.75;entryDx=0;entryDy=0;" parent="1" source="pzfeihaZ16w2dNfqgW6l-3" target="pzfeihaZ16w2dNfqgW6l-7" edge="1">
          <mxGeometry relative="1" as="geometry" />
        </mxCell>
        <mxCell id="pzfeihaZ16w2dNfqgW6l-3" value="Schedule based" style="rounded=1;whiteSpace=wrap;html=1;" parent="1" vertex="1">
          <mxGeometry x="240" y="240" width="110" height="40" as="geometry" />
        </mxCell>
        <mxCell id="pzfeihaZ16w2dNfqgW6l-22" style="edgeStyle=orthogonalEdgeStyle;rounded=0;orthogonalLoop=1;jettySize=auto;html=1;" parent="1" source="pzfeihaZ16w2dNfqgW6l-4" target="pzfeihaZ16w2dNfqgW6l-16" edge="1">
          <mxGeometry relative="1" as="geometry" />
        </mxCell>
        <mxCell id="pzfeihaZ16w2dNfqgW6l-23" style="edgeStyle=orthogonalEdgeStyle;rounded=0;orthogonalLoop=1;jettySize=auto;html=1;entryX=0;entryY=0.5;entryDx=0;entryDy=0;" parent="1" source="pzfeihaZ16w2dNfqgW6l-4" target="pzfeihaZ16w2dNfqgW6l-17" edge="1">
          <mxGeometry relative="1" as="geometry" />
        </mxCell>
        <mxCell id="pzfeihaZ16w2dNfqgW6l-4" value="Proxy" style="rounded=1;whiteSpace=wrap;html=1;" parent="1" vertex="1">
          <mxGeometry x="240" y="480" width="110" height="40" as="geometry" />
        </mxCell>
        <mxCell id="pzfeihaZ16w2dNfqgW6l-24" value="" style="edgeStyle=orthogonalEdgeStyle;rounded=0;orthogonalLoop=1;jettySize=auto;html=1;" parent="1" source="pzfeihaZ16w2dNfqgW6l-5" target="pzfeihaZ16w2dNfqgW6l-19" edge="1">
          <mxGeometry relative="1" as="geometry" />
        </mxCell>
        <mxCell id="pzfeihaZ16w2dNfqgW6l-25" style="edgeStyle=orthogonalEdgeStyle;rounded=0;orthogonalLoop=1;jettySize=auto;html=1;entryX=0;entryY=0.5;entryDx=0;entryDy=0;" parent="1" source="pzfeihaZ16w2dNfqgW6l-5" target="pzfeihaZ16w2dNfqgW6l-18" edge="1">
          <mxGeometry relative="1" as="geometry" />
        </mxCell>
        <mxCell id="pzfeihaZ16w2dNfqgW6l-5" value="Amazon ALB" style="rounded=1;whiteSpace=wrap;html=1;" parent="1" vertex="1">
          <mxGeometry x="240" y="720" width="110" height="40" as="geometry" />
        </mxCell>
        <mxCell id="pzfeihaZ16w2dNfqgW6l-6" value="UI" style="rounded=1;whiteSpace=wrap;html=1;" parent="1" vertex="1">
          <mxGeometry x="440" y="200" width="65" height="30" as="geometry" />
        </mxCell>
        <mxCell id="pzfeihaZ16w2dNfqgW6l-7" value="Terraform" style="rounded=1;whiteSpace=wrap;html=1;" parent="1" vertex="1">
          <mxGeometry x="440" y="280" width="65" height="30" as="geometry" />
        </mxCell>
        <mxCell id="iXKT5s3XGTXW1FiHpG6a-7" value="" style="edgeStyle=orthogonalEdgeStyle;rounded=0;orthogonalLoop=1;jettySize=auto;html=1;" edge="1" parent="1" source="pzfeihaZ16w2dNfqgW6l-16" target="iXKT5s3XGTXW1FiHpG6a-3">
          <mxGeometry relative="1" as="geometry" />
        </mxCell>
        <mxCell id="iXKT5s3XGTXW1FiHpG6a-8" value="" style="edgeStyle=orthogonalEdgeStyle;rounded=0;orthogonalLoop=1;jettySize=auto;html=1;" edge="1" parent="1" source="pzfeihaZ16w2dNfqgW6l-16" target="iXKT5s3XGTXW1FiHpG6a-3">
          <mxGeometry relative="1" as="geometry" />
        </mxCell>
        <mxCell id="iXKT5s3XGTXW1FiHpG6a-10" style="edgeStyle=orthogonalEdgeStyle;rounded=0;orthogonalLoop=1;jettySize=auto;html=1;entryX=0;entryY=0.5;entryDx=0;entryDy=0;" edge="1" parent="1" source="pzfeihaZ16w2dNfqgW6l-16" target="iXKT5s3XGTXW1FiHpG6a-2">
          <mxGeometry relative="1" as="geometry" />
        </mxCell>
        <mxCell id="pzfeihaZ16w2dNfqgW6l-16" value="HTTP / HTTPS" style="rounded=1;whiteSpace=wrap;html=1;" parent="1" vertex="1">
          <mxGeometry x="440" y="450" width="70" height="40" as="geometry" />
        </mxCell>
        <mxCell id="iXKT5s3XGTXW1FiHpG6a-12" value="" style="edgeStyle=orthogonalEdgeStyle;rounded=0;orthogonalLoop=1;jettySize=auto;html=1;" edge="1" parent="1" source="pzfeihaZ16w2dNfqgW6l-17" target="iXKT5s3XGTXW1FiHpG6a-5">
          <mxGeometry relative="1" as="geometry" />
        </mxCell>
        <mxCell id="iXKT5s3XGTXW1FiHpG6a-13" style="edgeStyle=orthogonalEdgeStyle;rounded=0;orthogonalLoop=1;jettySize=auto;html=1;entryX=0;entryY=0.5;entryDx=0;entryDy=0;" edge="1" parent="1" source="pzfeihaZ16w2dNfqgW6l-17" target="iXKT5s3XGTXW1FiHpG6a-4">
          <mxGeometry relative="1" as="geometry" />
        </mxCell>
        <mxCell id="pzfeihaZ16w2dNfqgW6l-17" value="TCP" style="rounded=1;whiteSpace=wrap;html=1;" parent="1" vertex="1">
          <mxGeometry x="440" y="570" width="65" height="30" as="geometry" />
        </mxCell>
        <mxCell id="pzfeihaZ16w2dNfqgW6l-18" value="UI" style="rounded=1;whiteSpace=wrap;html=1;" parent="1" vertex="1">
          <mxGeometry x="440" y="690" width="65" height="30" as="geometry" />
        </mxCell>
        <mxCell id="pzfeihaZ16w2dNfqgW6l-19" value="Terraform" style="rounded=1;whiteSpace=wrap;html=1;" parent="1" vertex="1">
          <mxGeometry x="440" y="760" width="65" height="30" as="geometry" />
        </mxCell>
        <mxCell id="iXKT5s3XGTXW1FiHpG6a-2" value="UI" style="rounded=1;whiteSpace=wrap;html=1;" vertex="1" parent="1">
          <mxGeometry x="560" y="430" width="65" height="30" as="geometry" />
        </mxCell>
        <mxCell id="iXKT5s3XGTXW1FiHpG6a-3" value="Terraform" style="rounded=1;whiteSpace=wrap;html=1;" vertex="1" parent="1">
          <mxGeometry x="560" y="480" width="65" height="30" as="geometry" />
        </mxCell>
        <mxCell id="iXKT5s3XGTXW1FiHpG6a-4" value="UI" style="rounded=1;whiteSpace=wrap;html=1;" vertex="1" parent="1">
          <mxGeometry x="560" y="550" width="65" height="30" as="geometry" />
        </mxCell>
        <mxCell id="iXKT5s3XGTXW1FiHpG6a-5" value="Terraform" style="rounded=1;whiteSpace=wrap;html=1;" vertex="1" parent="1">
          <mxGeometry x="560" y="600" width="65" height="30" as="geometry" />
        </mxCell>
        <mxCell id="iXKT5s3XGTXW1FiHpG6a-6" value="" style="endArrow=none;html=1;rounded=0;" edge="1" parent="1">
          <mxGeometry width="50" height="50" relative="1" as="geometry">
            <mxPoint x="40" y="2720" as="sourcePoint" />
            <mxPoint x="1220" y="2720" as="targetPoint" />
          </mxGeometry>
        </mxCell>
        <mxCell id="iXKT5s3XGTXW1FiHpG6a-14" style="edgeStyle=orthogonalEdgeStyle;rounded=0;orthogonalLoop=1;jettySize=auto;html=1;entryX=0;entryY=0.75;entryDx=0;entryDy=0;" edge="1" parent="1" source="iXKT5s3XGTXW1FiHpG6a-17" target="iXKT5s3XGTXW1FiHpG6a-20">
          <mxGeometry relative="1" as="geometry">
            <Array as="points">
              <mxPoint x="190" y="1370" />
              <mxPoint x="190" y="1180" />
            </Array>
          </mxGeometry>
        </mxCell>
        <mxCell id="iXKT5s3XGTXW1FiHpG6a-15" style="edgeStyle=orthogonalEdgeStyle;rounded=0;orthogonalLoop=1;jettySize=auto;html=1;entryX=0;entryY=0.5;entryDx=0;entryDy=0;" edge="1" parent="1" source="iXKT5s3XGTXW1FiHpG6a-17" target="iXKT5s3XGTXW1FiHpG6a-26">
          <mxGeometry relative="1" as="geometry" />
        </mxCell>
        <mxCell id="iXKT5s3XGTXW1FiHpG6a-16" style="edgeStyle=orthogonalEdgeStyle;rounded=0;orthogonalLoop=1;jettySize=auto;html=1;entryX=0;entryY=0.5;entryDx=0;entryDy=0;" edge="1" parent="1" source="iXKT5s3XGTXW1FiHpG6a-17" target="iXKT5s3XGTXW1FiHpG6a-23">
          <mxGeometry relative="1" as="geometry" />
        </mxCell>
        <mxCell id="iXKT5s3XGTXW1FiHpG6a-17" value="Azure" style="rounded=1;whiteSpace=wrap;html=1;" vertex="1" parent="1">
          <mxGeometry x="30" y="1350" width="90" height="40" as="geometry" />
        </mxCell>
        <mxCell id="iXKT5s3XGTXW1FiHpG6a-18" style="edgeStyle=orthogonalEdgeStyle;rounded=0;orthogonalLoop=1;jettySize=auto;html=1;entryX=0;entryY=0.5;entryDx=0;entryDy=0;" edge="1" parent="1" source="iXKT5s3XGTXW1FiHpG6a-20" target="iXKT5s3XGTXW1FiHpG6a-27">
          <mxGeometry relative="1" as="geometry" />
        </mxCell>
        <mxCell id="iXKT5s3XGTXW1FiHpG6a-19" style="edgeStyle=orthogonalEdgeStyle;rounded=0;orthogonalLoop=1;jettySize=auto;html=1;entryX=0;entryY=0.75;entryDx=0;entryDy=0;" edge="1" parent="1" source="iXKT5s3XGTXW1FiHpG6a-20" target="iXKT5s3XGTXW1FiHpG6a-28">
          <mxGeometry relative="1" as="geometry" />
        </mxCell>
        <mxCell id="iXKT5s3XGTXW1FiHpG6a-20" value="Schedule based" style="rounded=1;whiteSpace=wrap;html=1;" vertex="1" parent="1">
          <mxGeometry x="240" y="1150" width="110" height="40" as="geometry" />
        </mxCell>
        <mxCell id="iXKT5s3XGTXW1FiHpG6a-21" style="edgeStyle=orthogonalEdgeStyle;rounded=0;orthogonalLoop=1;jettySize=auto;html=1;" edge="1" parent="1" source="iXKT5s3XGTXW1FiHpG6a-23" target="iXKT5s3XGTXW1FiHpG6a-32">
          <mxGeometry relative="1" as="geometry" />
        </mxCell>
        <mxCell id="iXKT5s3XGTXW1FiHpG6a-22" style="edgeStyle=orthogonalEdgeStyle;rounded=0;orthogonalLoop=1;jettySize=auto;html=1;entryX=0;entryY=0.5;entryDx=0;entryDy=0;" edge="1" parent="1" source="iXKT5s3XGTXW1FiHpG6a-23" target="iXKT5s3XGTXW1FiHpG6a-35">
          <mxGeometry relative="1" as="geometry" />
        </mxCell>
        <mxCell id="iXKT5s3XGTXW1FiHpG6a-23" value="Proxy" style="rounded=1;whiteSpace=wrap;html=1;" vertex="1" parent="1">
          <mxGeometry x="240" y="1390" width="110" height="40" as="geometry" />
        </mxCell>
        <mxCell id="iXKT5s3XGTXW1FiHpG6a-24" value="" style="edgeStyle=orthogonalEdgeStyle;rounded=0;orthogonalLoop=1;jettySize=auto;html=1;" edge="1" parent="1" source="iXKT5s3XGTXW1FiHpG6a-26" target="iXKT5s3XGTXW1FiHpG6a-37">
          <mxGeometry relative="1" as="geometry" />
        </mxCell>
        <mxCell id="iXKT5s3XGTXW1FiHpG6a-25" style="edgeStyle=orthogonalEdgeStyle;rounded=0;orthogonalLoop=1;jettySize=auto;html=1;entryX=0;entryY=0.5;entryDx=0;entryDy=0;" edge="1" parent="1" source="iXKT5s3XGTXW1FiHpG6a-26" target="iXKT5s3XGTXW1FiHpG6a-36">
          <mxGeometry relative="1" as="geometry" />
        </mxCell>
        <mxCell id="iXKT5s3XGTXW1FiHpG6a-26" value="Amazon ALB" style="rounded=1;whiteSpace=wrap;html=1;" vertex="1" parent="1">
          <mxGeometry x="240" y="1630" width="110" height="40" as="geometry" />
        </mxCell>
        <mxCell id="iXKT5s3XGTXW1FiHpG6a-27" value="UI" style="rounded=1;whiteSpace=wrap;html=1;" vertex="1" parent="1">
          <mxGeometry x="440" y="1110" width="65" height="30" as="geometry" />
        </mxCell>
        <mxCell id="iXKT5s3XGTXW1FiHpG6a-28" value="Terraform" style="rounded=1;whiteSpace=wrap;html=1;" vertex="1" parent="1">
          <mxGeometry x="440" y="1190" width="65" height="30" as="geometry" />
        </mxCell>
        <mxCell id="iXKT5s3XGTXW1FiHpG6a-29" value="" style="edgeStyle=orthogonalEdgeStyle;rounded=0;orthogonalLoop=1;jettySize=auto;html=1;" edge="1" parent="1" source="iXKT5s3XGTXW1FiHpG6a-32" target="iXKT5s3XGTXW1FiHpG6a-39">
          <mxGeometry relative="1" as="geometry" />
        </mxCell>
        <mxCell id="iXKT5s3XGTXW1FiHpG6a-30" value="" style="edgeStyle=orthogonalEdgeStyle;rounded=0;orthogonalLoop=1;jettySize=auto;html=1;" edge="1" parent="1" source="iXKT5s3XGTXW1FiHpG6a-32" target="iXKT5s3XGTXW1FiHpG6a-39">
          <mxGeometry relative="1" as="geometry" />
        </mxCell>
        <mxCell id="iXKT5s3XGTXW1FiHpG6a-31" style="edgeStyle=orthogonalEdgeStyle;rounded=0;orthogonalLoop=1;jettySize=auto;html=1;entryX=0;entryY=0.5;entryDx=0;entryDy=0;" edge="1" parent="1" source="iXKT5s3XGTXW1FiHpG6a-32" target="iXKT5s3XGTXW1FiHpG6a-38">
          <mxGeometry relative="1" as="geometry" />
        </mxCell>
        <mxCell id="iXKT5s3XGTXW1FiHpG6a-32" value="HTTP / HTTPS" style="rounded=1;whiteSpace=wrap;html=1;" vertex="1" parent="1">
          <mxGeometry x="440" y="1360" width="70" height="40" as="geometry" />
        </mxCell>
        <mxCell id="iXKT5s3XGTXW1FiHpG6a-33" value="" style="edgeStyle=orthogonalEdgeStyle;rounded=0;orthogonalLoop=1;jettySize=auto;html=1;" edge="1" parent="1" source="iXKT5s3XGTXW1FiHpG6a-35" target="iXKT5s3XGTXW1FiHpG6a-41">
          <mxGeometry relative="1" as="geometry" />
        </mxCell>
        <mxCell id="iXKT5s3XGTXW1FiHpG6a-34" style="edgeStyle=orthogonalEdgeStyle;rounded=0;orthogonalLoop=1;jettySize=auto;html=1;entryX=0;entryY=0.5;entryDx=0;entryDy=0;" edge="1" parent="1" source="iXKT5s3XGTXW1FiHpG6a-35" target="iXKT5s3XGTXW1FiHpG6a-40">
          <mxGeometry relative="1" as="geometry" />
        </mxCell>
        <mxCell id="iXKT5s3XGTXW1FiHpG6a-35" value="TCP" style="rounded=1;whiteSpace=wrap;html=1;" vertex="1" parent="1">
          <mxGeometry x="440" y="1480" width="65" height="30" as="geometry" />
        </mxCell>
        <mxCell id="iXKT5s3XGTXW1FiHpG6a-36" value="UI" style="rounded=1;whiteSpace=wrap;html=1;" vertex="1" parent="1">
          <mxGeometry x="440" y="1600" width="65" height="30" as="geometry" />
        </mxCell>
        <mxCell id="iXKT5s3XGTXW1FiHpG6a-37" value="Terraform" style="rounded=1;whiteSpace=wrap;html=1;" vertex="1" parent="1">
          <mxGeometry x="440" y="1670" width="65" height="30" as="geometry" />
        </mxCell>
        <mxCell id="iXKT5s3XGTXW1FiHpG6a-38" value="UI" style="rounded=1;whiteSpace=wrap;html=1;" vertex="1" parent="1">
          <mxGeometry x="560" y="1340" width="65" height="30" as="geometry" />
        </mxCell>
        <mxCell id="iXKT5s3XGTXW1FiHpG6a-39" value="Terraform" style="rounded=1;whiteSpace=wrap;html=1;" vertex="1" parent="1">
          <mxGeometry x="560" y="1390" width="65" height="30" as="geometry" />
        </mxCell>
        <mxCell id="iXKT5s3XGTXW1FiHpG6a-40" value="UI" style="rounded=1;whiteSpace=wrap;html=1;" vertex="1" parent="1">
          <mxGeometry x="560" y="1460" width="65" height="30" as="geometry" />
        </mxCell>
        <mxCell id="iXKT5s3XGTXW1FiHpG6a-41" value="Terraform" style="rounded=1;whiteSpace=wrap;html=1;" vertex="1" parent="1">
          <mxGeometry x="560" y="1510" width="65" height="30" as="geometry" />
        </mxCell>
        <mxCell id="iXKT5s3XGTXW1FiHpG6a-42" style="edgeStyle=orthogonalEdgeStyle;rounded=0;orthogonalLoop=1;jettySize=auto;html=1;entryX=0;entryY=0.75;entryDx=0;entryDy=0;" edge="1" parent="1" source="iXKT5s3XGTXW1FiHpG6a-45" target="iXKT5s3XGTXW1FiHpG6a-48">
          <mxGeometry relative="1" as="geometry">
            <Array as="points">
              <mxPoint x="200" y="2240" />
              <mxPoint x="200" y="2050" />
            </Array>
          </mxGeometry>
        </mxCell>
        <mxCell id="iXKT5s3XGTXW1FiHpG6a-43" style="edgeStyle=orthogonalEdgeStyle;rounded=0;orthogonalLoop=1;jettySize=auto;html=1;entryX=0;entryY=0.5;entryDx=0;entryDy=0;" edge="1" parent="1" source="iXKT5s3XGTXW1FiHpG6a-45" target="iXKT5s3XGTXW1FiHpG6a-54">
          <mxGeometry relative="1" as="geometry" />
        </mxCell>
        <mxCell id="iXKT5s3XGTXW1FiHpG6a-44" style="edgeStyle=orthogonalEdgeStyle;rounded=0;orthogonalLoop=1;jettySize=auto;html=1;entryX=0;entryY=0.5;entryDx=0;entryDy=0;" edge="1" parent="1" source="iXKT5s3XGTXW1FiHpG6a-45" target="iXKT5s3XGTXW1FiHpG6a-51">
          <mxGeometry relative="1" as="geometry" />
        </mxCell>
        <mxCell id="iXKT5s3XGTXW1FiHpG6a-45" value="GCP" style="rounded=1;whiteSpace=wrap;html=1;" vertex="1" parent="1">
          <mxGeometry x="40" y="2220" width="90" height="40" as="geometry" />
        </mxCell>
        <mxCell id="iXKT5s3XGTXW1FiHpG6a-46" style="edgeStyle=orthogonalEdgeStyle;rounded=0;orthogonalLoop=1;jettySize=auto;html=1;entryX=0;entryY=0.5;entryDx=0;entryDy=0;" edge="1" parent="1" source="iXKT5s3XGTXW1FiHpG6a-48" target="iXKT5s3XGTXW1FiHpG6a-55">
          <mxGeometry relative="1" as="geometry" />
        </mxCell>
        <mxCell id="iXKT5s3XGTXW1FiHpG6a-47" style="edgeStyle=orthogonalEdgeStyle;rounded=0;orthogonalLoop=1;jettySize=auto;html=1;entryX=0;entryY=0.75;entryDx=0;entryDy=0;" edge="1" parent="1" source="iXKT5s3XGTXW1FiHpG6a-48" target="iXKT5s3XGTXW1FiHpG6a-56">
          <mxGeometry relative="1" as="geometry" />
        </mxCell>
        <mxCell id="iXKT5s3XGTXW1FiHpG6a-48" value="Schedule based" style="rounded=1;whiteSpace=wrap;html=1;" vertex="1" parent="1">
          <mxGeometry x="250" y="2020" width="110" height="40" as="geometry" />
        </mxCell>
        <mxCell id="iXKT5s3XGTXW1FiHpG6a-49" style="edgeStyle=orthogonalEdgeStyle;rounded=0;orthogonalLoop=1;jettySize=auto;html=1;" edge="1" parent="1" source="iXKT5s3XGTXW1FiHpG6a-51" target="iXKT5s3XGTXW1FiHpG6a-60">
          <mxGeometry relative="1" as="geometry" />
        </mxCell>
        <mxCell id="iXKT5s3XGTXW1FiHpG6a-50" style="edgeStyle=orthogonalEdgeStyle;rounded=0;orthogonalLoop=1;jettySize=auto;html=1;entryX=0;entryY=0.5;entryDx=0;entryDy=0;" edge="1" parent="1" source="iXKT5s3XGTXW1FiHpG6a-51" target="iXKT5s3XGTXW1FiHpG6a-63">
          <mxGeometry relative="1" as="geometry" />
        </mxCell>
        <mxCell id="iXKT5s3XGTXW1FiHpG6a-51" value="Proxy" style="rounded=1;whiteSpace=wrap;html=1;" vertex="1" parent="1">
          <mxGeometry x="250" y="2260" width="110" height="40" as="geometry" />
        </mxCell>
        <mxCell id="iXKT5s3XGTXW1FiHpG6a-52" value="" style="edgeStyle=orthogonalEdgeStyle;rounded=0;orthogonalLoop=1;jettySize=auto;html=1;" edge="1" parent="1" source="iXKT5s3XGTXW1FiHpG6a-54" target="iXKT5s3XGTXW1FiHpG6a-65">
          <mxGeometry relative="1" as="geometry" />
        </mxCell>
        <mxCell id="iXKT5s3XGTXW1FiHpG6a-53" style="edgeStyle=orthogonalEdgeStyle;rounded=0;orthogonalLoop=1;jettySize=auto;html=1;entryX=0;entryY=0.5;entryDx=0;entryDy=0;" edge="1" parent="1" source="iXKT5s3XGTXW1FiHpG6a-54" target="iXKT5s3XGTXW1FiHpG6a-64">
          <mxGeometry relative="1" as="geometry" />
        </mxCell>
        <mxCell id="iXKT5s3XGTXW1FiHpG6a-54" value="Amazon ALB" style="rounded=1;whiteSpace=wrap;html=1;" vertex="1" parent="1">
          <mxGeometry x="250" y="2500" width="110" height="40" as="geometry" />
        </mxCell>
        <mxCell id="iXKT5s3XGTXW1FiHpG6a-55" value="UI" style="rounded=1;whiteSpace=wrap;html=1;" vertex="1" parent="1">
          <mxGeometry x="450" y="1980" width="65" height="30" as="geometry" />
        </mxCell>
        <mxCell id="iXKT5s3XGTXW1FiHpG6a-56" value="Terraform" style="rounded=1;whiteSpace=wrap;html=1;" vertex="1" parent="1">
          <mxGeometry x="450" y="2060" width="65" height="30" as="geometry" />
        </mxCell>
        <mxCell id="iXKT5s3XGTXW1FiHpG6a-57" value="" style="edgeStyle=orthogonalEdgeStyle;rounded=0;orthogonalLoop=1;jettySize=auto;html=1;" edge="1" parent="1" source="iXKT5s3XGTXW1FiHpG6a-60" target="iXKT5s3XGTXW1FiHpG6a-67">
          <mxGeometry relative="1" as="geometry" />
        </mxCell>
        <mxCell id="iXKT5s3XGTXW1FiHpG6a-58" value="" style="edgeStyle=orthogonalEdgeStyle;rounded=0;orthogonalLoop=1;jettySize=auto;html=1;" edge="1" parent="1" source="iXKT5s3XGTXW1FiHpG6a-60" target="iXKT5s3XGTXW1FiHpG6a-67">
          <mxGeometry relative="1" as="geometry" />
        </mxCell>
        <mxCell id="iXKT5s3XGTXW1FiHpG6a-59" style="edgeStyle=orthogonalEdgeStyle;rounded=0;orthogonalLoop=1;jettySize=auto;html=1;entryX=0;entryY=0.5;entryDx=0;entryDy=0;" edge="1" parent="1" source="iXKT5s3XGTXW1FiHpG6a-60" target="iXKT5s3XGTXW1FiHpG6a-66">
          <mxGeometry relative="1" as="geometry" />
        </mxCell>
        <mxCell id="iXKT5s3XGTXW1FiHpG6a-60" value="HTTP / HTTPS" style="rounded=1;whiteSpace=wrap;html=1;" vertex="1" parent="1">
          <mxGeometry x="450" y="2230" width="70" height="40" as="geometry" />
        </mxCell>
        <mxCell id="iXKT5s3XGTXW1FiHpG6a-61" value="" style="edgeStyle=orthogonalEdgeStyle;rounded=0;orthogonalLoop=1;jettySize=auto;html=1;" edge="1" parent="1" source="iXKT5s3XGTXW1FiHpG6a-63" target="iXKT5s3XGTXW1FiHpG6a-69">
          <mxGeometry relative="1" as="geometry" />
        </mxCell>
        <mxCell id="iXKT5s3XGTXW1FiHpG6a-62" style="edgeStyle=orthogonalEdgeStyle;rounded=0;orthogonalLoop=1;jettySize=auto;html=1;entryX=0;entryY=0.5;entryDx=0;entryDy=0;" edge="1" parent="1" source="iXKT5s3XGTXW1FiHpG6a-63" target="iXKT5s3XGTXW1FiHpG6a-68">
          <mxGeometry relative="1" as="geometry" />
        </mxCell>
        <mxCell id="iXKT5s3XGTXW1FiHpG6a-63" value="TCP" style="rounded=1;whiteSpace=wrap;html=1;" vertex="1" parent="1">
          <mxGeometry x="450" y="2350" width="65" height="30" as="geometry" />
        </mxCell>
        <mxCell id="iXKT5s3XGTXW1FiHpG6a-64" value="UI" style="rounded=1;whiteSpace=wrap;html=1;" vertex="1" parent="1">
          <mxGeometry x="450" y="2470" width="65" height="30" as="geometry" />
        </mxCell>
        <mxCell id="iXKT5s3XGTXW1FiHpG6a-65" value="Terraform" style="rounded=1;whiteSpace=wrap;html=1;" vertex="1" parent="1">
          <mxGeometry x="450" y="2540" width="65" height="30" as="geometry" />
        </mxCell>
        <mxCell id="iXKT5s3XGTXW1FiHpG6a-66" value="UI" style="rounded=1;whiteSpace=wrap;html=1;" vertex="1" parent="1">
          <mxGeometry x="570" y="2210" width="65" height="30" as="geometry" />
        </mxCell>
        <mxCell id="iXKT5s3XGTXW1FiHpG6a-67" value="Terraform" style="rounded=1;whiteSpace=wrap;html=1;" vertex="1" parent="1">
          <mxGeometry x="570" y="2260" width="65" height="30" as="geometry" />
        </mxCell>
        <mxCell id="iXKT5s3XGTXW1FiHpG6a-68" value="UI" style="rounded=1;whiteSpace=wrap;html=1;" vertex="1" parent="1">
          <mxGeometry x="570" y="2330" width="65" height="30" as="geometry" />
        </mxCell>
        <mxCell id="iXKT5s3XGTXW1FiHpG6a-69" value="Terraform" style="rounded=1;whiteSpace=wrap;html=1;" vertex="1" parent="1">
          <mxGeometry x="570" y="2380" width="65" height="30" as="geometry" />
        </mxCell>
      </root>
    </mxGraphModel>
  </diagram>
</mxfile>
